HIERARCHY
ROOT Hips
{
  OFFSET -31.5692 30.0904 122.763
  CHANNELS 6 Xposition Yposition Zposition Zrotation Xrotation Yrotation
  JOINT LeftUpLeg
  {
    OFFSET 8.64259 1.95398 -2.38835
    CHANNELS 3 Zrotation Xrotation Yrotation
    JOINT LeftLeg
    {
      OFFSET 43.7702 0 0
      CHANNELS 3 Zrotation Xrotation Yrotation
      JOINT LeftFoot
      {
        OFFSET 40.6238 0 0
        CHANNELS 3 Zrotation Xrotation Yrotation
        JOINT LeftToeBase
        {
          OFFSET 12.7242 0 0
          CHANNELS 3 Zrotation Xrotation Yrotation
          End Site
          {
            OFFSET 0 0 0
          }
        }
      }
    }
  }
  JOINT RightUpLeg
  {
    OFFSET -8.2249 1.95398 -2.59336
    CHANNELS 3 Zrotation Xrotation Yrotation
    JOINT RightLeg
    {
      OFFSET 43.5653 0 0
      CHANNELS 3 Zrotation Xrotation Yrotation
      JOINT RightFoot
      {
        OFFSET 40.6238 0 0
        CHANNELS 3 Zrotation Xrotation Yrotation
        JOINT RightToeBase
        {
          OFFSET 12.7242 0 0
          CHANNELS 3 Zrotation Xrotation Yrotation
          End Site
          {
            OFFSET 0 0 0
          }
        }
      }
    }
  }
  JOINT Spine
  {
    OFFSET 0.165834 0.87714 6.61349
    CHANNELS 3 Zrotation Xrotation Yrotation
    JOINT Spine1
    {
      OFFSET 7.38963 1.71661e-005 0
      CHANNELS 3 Zrotation Xrotation Yrotation
      JOINT Spine2
      {
        OFFSET 11.9445 1.14441e-005 0
        CHANNELS 3 Zrotation Xrotation Yrotation
        JOINT Spine3
        {
          OFFSET 14.7254 4.19617e-005 0
          CHANNELS 3 Zrotation Xrotation Yrotation
          JOINT Spine4
          {
            OFFSET 10.9679 0 0
            CHANNELS 3 Zrotation Xrotation Yrotation
            JOINT RightShoulder
            {
              OFFSET 2.46616 -1.6653 3.69651
              CHANNELS 3 Zrotation Xrotation Yrotation
              JOINT RightArm
              {
                OFFSET 13.0012 0 0
                CHANNELS 3 Zrotation Xrotation Yrotation
                JOINT RightForeArm
                {
                  OFFSET 28.7848 1.62311e-005 0
                  CHANNELS 3 Zrotation Xrotation Yrotation
                  JOINT RightHand
                  {
                    OFFSET 26.5688 1.62095e-005 0
                    CHANNELS 3 Zrotation Xrotation Yrotation
                    End Site
                    {
                      OFFSET 0 0 0
                    }
                  }
                }
              }
            }
            JOINT LeftShoulder
            {
              OFFSET 2.38034 -1.29275 -3.7523
              CHANNELS 3 Zrotation Xrotation Yrotation
              JOINT LeftArm
              {
                OFFSET 16.3182 6.07031e-005 0
                CHANNELS 3 Zrotation Xrotation Yrotation
                JOINT LeftForeArm
                {
                  OFFSET 27.0901 0 0
                  CHANNELS 3 Zrotation Xrotation Yrotation
                  JOINT LeftHand
                  {
                    OFFSET 24.5451 1.51738e-005 0
                    CHANNELS 3 Zrotation Xrotation Yrotation
                    End Site
                    {
                      OFFSET 0 0 0
                    }
                  }
                }
              }
            }
            JOINT Neck
            {
              OFFSET 5.0226 -0.0266342 0
              CHANNELS 3 Zrotation Xrotation Yrotation
              JOINT Head
              {
                OFFSET 6.69364 2.86102e-005 0
                CHANNELS 3 Zrotation Xrotation Yrotation
                End Site
                {
                  OFFSET 0 0 0
                }
              }
            }
          }
        }
      }
    }
  }
}
MOTION
Frames:	15
Frame Time:	0.0416667
-50.1197 105.366 33.6613 87.1012 27.8707 89.5782 -172.371 39.7765 89.8212 -45.1678 -0.00502058 -2.30461 71.4176 7.10087 1.62378 9.47938 -13.0306 5.64533 172.872 -5.02509 88.0969 -24.0053 -27.4783 -4.61179 57.6093 2.90704 0.00760718 21.2624 2.63756 3.25026 1.66011 7.83534 -89.4232 11.1879 3.57196 0.797696 -0.478334 3.60359 0.639517 -23.0436 3.16696 1.83525 -3.03095 3.16695 1.83525 93.2898 -16.8918 -104.903 10.7146 8.95683 -3.5684 -7.96379 -18.7184 -28.5429 -24.8939 2.44159 -20.9591 -83.6221 -34.5659 86.3594 8.57612 -7.11984 2.49461 0.621114 2.33138 -4.64779 20.6765 -1.69134 -12.3155 -19.6537 2.30716 -4.42916 -6.34583 2.22831 0.524541 
-37.8474 109.29 22.1484 85.8692 21.7489 92.6998 -174.649 29.0862 94.1996 -13.5816 -4.48927 -1.63404 71.7454 9.51923 -1.09389 22.5993 -6.84981 9.28659 168.043 -8.80313 82.1283 -31.7594 -18.5299 -3.00537 59.2193 3.05974 0.706366 20.6688 2.9845 2.95644 2.30129 7.62856 -89.7007 11.6276 4.71793 0.097957 -0.0346637 4.71766 -0.110261 -22.6339 4.46987 1.51421 -2.62124 4.46986 1.5142 93.9903 -14.0407 -104.41 8.31853 5.61747 1.58803 -11.5567 -21.4191 -38.2299 -28.1899 3.39087 -24.102 -81.3459 -35.858 90.6451 11.8692 -4.18018 18.5068 0.579141 5.56647 -5.60377 13.0056 -1.36167 -14.6059 -28.3392 2.12337 0.548604 -1.4147 2.22005 -1.42149 
-25.2168 108.637 10.0025 90.7048 18.3653 94.4755 -174.98 21.255 97.1718 -7.26481 -5.93776 0.522414 75.5299 10.1185 -2.97403 25.8836 -6.70717 13.7503 161.524 -18.7898 74.0254 -40.326 -25.6129 -6.64583 59.5672 2.57084 1.26936 23.3548 1.57248 3.81951 2.64971 7.70598 -90.4272 11.503 5.07208 -1.3683 -0.158955 5.00696 -1.5907 -22.7741 5.24817 0.223518 -2.76145 5.2482 0.223523 94.6502 -13.6474 -102.816 7.99247 2.01816 7.4464 -14.8371 -21.7392 -46.65 -29.1245 3.86423 -26.1806 -78.163 -33.2442 96.4002 6.60361 -4.65695 31.0571 0.961388 3.5095 -6.317 9.28344 -0.79666 -12.0987 -36.8005 2.1464 2.02659 1.44144 2.58576 -0.333421 
-13.2882 102.88 -1.19285 92.2078 17.5181 96.418 -170.495 16.0168 97.8994 -8.55175 -3.20531 -1.52044 69.5436 9.15449 -2.32484 21.5874 -7.53142 9.39767 158.008 -24.3743 67.3503 -46.2384 -22.6363 -10.0174 65.4573 -1.59095 -0.612769 25.7358 0.694397 3.14383 2.71217 7.40378 -90.8633 12.1234 4.98356 -2.27248 0.459693 4.8787 -2.48997 -22.1499 5.4355 -0.665802 -2.13731 5.43551 -0.6658 94.7745 -15.7295 -101.613 11.4415 -0.140786 17.0685 -14.3836 -18.6583 -50.6093 -27.7931 3.79795 -26.3127 -76.0886 -31.9272 100.328 2.8857 -6.22734 37.2983 1.57226 1.95797 -6.95021 12.2472 -0.550619 -8.42818 -38.374 2.25757 0.610174 1.04782 2.50295 0.781621 
-3.67334 96.948 -10.9082 91.6379 21.5429 92.2226 -168.153 26.1951 91.179 -38.9012 7.42613 -4.81536 72.0817 7.46917 1.54715 12.6804 -11.0282 5.61068 162.206 -21.4521 68.1107 -61.7092 -11.0971 -12.365 68.8863 -4.26412 -2.8997 23.9742 1.08374 4.68176 2.05381 7.5336 -90.1867 11.8439 3.99763 -0.770463 0.179078 3.95991 -0.945935 -22.4065 4.04391 0.468526 -2.39383 4.04388 0.468518 95.1883 -17.8359 -99.8334 23.7308 -0.584086 22.0351 -18.084 -25.402 -50.2921 -28.3129 2.5769 -22.2831 -78.1427 -40.1873 96.5292 -2.32671 -7.7698 30.1394 2.88032 -2.79758 -3.93414 10.5324 -0.446701 -7.0615 -30.2071 2.62166 1.09989 -1.04736 2.84592 0.201227 
3.29628 95.4628 -17.5983 93.1771 25.1915 83.2695 -168.106 17.3208 83.3568 -41.0616 6.76818 -6.54573 80.4927 12.9799 -0.428306 15.874 -10.4636 8.18229 177.286 -2.96072 75.4446 -88.6358 -8.08782 -11.2346 70.3422 -5.50874 -4.9733 20.966 1.9811 6.0847 1.04246 7.97222 -88.9772 10.8962 2.54796 1.78183 -0.773352 2.62392 1.66792 -23.3111 1.8949 2.46518 -3.2985 1.89489 2.46518 94.3011 -24.3752 -99.6848 36.4504 -1.94034 17.4616 -10.7139 -31.4439 -38.0123 -25.9735 0.871122 -15.9274 -81.0895 -51.3149 92.2327 -6.03049 -2.66284 4.84398 0.974807 -4.1516 -1.72536 8.27557 -0.516424 -8.15031 -28.2014 4.57768 0.345942 -4.03888 4.73074 0.947961 
9.96818 97.8239 -22.9554 93.7832 28.5431 84.746 -170.804 7.12285 84.3175 -31.9273 7.41299 -4.79163 80.7475 13.4055 -0.921521 16.5024 -10.7506 9.5064 -176.711 14.322 86.2358 -87.1006 -5.06816 -8.21404 70.7869 -5.58007 -4.26353 23.1766 1.05675 6.12204 0.209183 7.98462 -89.1623 10.8978 0.803793 1.58988 -0.773975 0.872995 1.55297 -23.301 0.288926 1.75789 -3.28839 0.288938 1.75789 93.4796 -26.032 -100.984 44.56 -5.17505 15.5881 -2.19836 -37.4991 -26.8516 -23.4588 0.0870486 -13.4754 -84.3733 -56.0807 87.8752 -6.32072 -1.23636 -16.7627 1.93245 12.8826 -6.5321 13.1391 -1.22969 -14.0237 -29.6091 6.06201 1.37703 -3.81191 6.39289 1.96587 
17.3138 100.399 -28.4827 95.1654 35.0915 87.1745 -173.365 -2.21897 86.4944 -24.3871 10.7821 -1.0213 75.4704 9.90869 0.481005 21.2615 -8.30909 10.6583 -178.821 23.2819 93.7915 -57.7121 0.605169 -4.7934 70.7442 -5.42892 -3.37008 20.916 2.05565 5.88054 -0.638144 8.29749 -89.6655 10.2825 -1.11851 0.76056 -1.38821 -1.08398 0.809049 -23.9266 -1.29538 0.389199 -3.91397 -1.29538 0.389205 92.9613 -27.5944 -101.584 47.3687 -4.96755 17.4886 1.5686 -36.8638 -22.5768 -22.4646 0.0420462 -13.2429 -86.742 -50.0248 83.6185 -5.74742 5.04779 -38.0248 -0.0581379 13.6769 -9.48749 14.7148 -2.31921 -19.8367 -27.2937 7.00186 -0.587373 -3.2529 7.1371 4.50909 
25.7097 100.415 -35.1506 95.6954 41.9549 89.4815 -172.203 -7.76583 90.9042 -25.0085 17.774 1.54146 74.5099 8.10892 0.922927 19.2921 -9.08917 9.68912 -179.768 21.0961 95.2555 -17.5235 -2.66428 -0.770069 64.5114 -4.35179 -0.8563 23.945 1.25914 3.97081 -1.27545 8.45533 -90.1531 9.96208 -2.61152 -0.089113 -1.70627 -2.61291 0.0259794 -24.2606 -2.46393 -0.87034 -4.24793 -2.46391 -0.870341 92.9225 -27.1747 -101.8 49.2105 -3.97475 19.9936 4.22957 -33.7193 -19.3393 -20.066 0.125829 -13.8216 -88.1618 -38.8124 79.1057 -11.2219 3.49931 -56.4411 0.387378 16.2601 -6.63461 13.8866 -3.67301 -28.8598 -26.0975 7.01189 -4.24405 -3.02463 6.8392 6.35491 
34.9866 97.4808 -42.4222 97.4317 47.1445 88.1285 -167.679 -15.6663 97.0264 -24.5083 25.3891 1.45816 76.8945 10.9104 1.88044 24.8592 -6.49368 11.69 179.434 21.8988 94.8349 -6.06414 -3.8106 0.294122 64.1143 -4.1288 -0.840123 28.4043 -0.00985449 0.992196 -1.8382 8.55534 -90.2549 9.76183 -3.77957 -0.206453 -1.90362 -3.78499 -0.0396695 -24.4787 -3.54256 -1.33424 -4.46602 -3.54255 -1.33425 93.0639 -27.4999 -101.404 48.1676 -3.98341 20.8888 4.4033 -36.0741 -18.9896 -17.8985 0.0498552 -15.0938 -88.1908 -30.6832 77.0243 -15.115 -0.645906 -69.5906 2.78725 17.6277 -7.23925 18.0706 -5.48892 -32.6686 -22.9721 6.34089 -7.48742 -4.22695 5.97274 8.70738 
44.673 94.3886 -50.7034 100.371 51.5307 85.2992 -163.995 -22.3964 102.245 -26.4795 31.2766 3.95478 72.8624 9.27143 3.50789 36.7126 -0.426963 15.6649 176.872 27.1435 93.4677 -22.3933 -3.07646 1.54481 59.3312 2.18704 -0.985605 22.6062 1.66134 4.5979 -2.21694 8.53808 -90.4491 9.79182 -4.62227 -0.522861 -1.87096 -4.64082 -0.318479 -24.4634 -4.25113 -1.8903 -4.45075 -4.25113 -1.89031 93.4445 -29.5211 -100.008 44.9362 -1.52883 19.5081 4.43339 -35.6275 -15.7512 -19.0017 -0.0982239 -13.1746 -88.834 -34.4004 76.8291 -17.8103 -1.64512 -74.834 7.80474 18.9687 -15.4773 21.3201 -6.80084 -33.9168 -18.3685 5.00135 -3.84376 -6.10226 4.85213 6.21614 
53.8915 93.0741 -58.8067 100.007 50.5505 87.7174 -164.556 -19.2505 103.83 -41.1191 28.0011 6.45115 64.1392 2.48492 3.28008 24.668 -4.23848 5.86897 172.968 30.954 96.2988 -41.959 -7.06926 4.07227 64.6254 -1.10119 -2.6136 18.3894 3.78432 3.70178 -1.68633 8.37328 -91.0696 10.0965 -3.84754 -1.80176 -1.56975 -3.92308 -1.6305 -24.1276 -3.12827 -2.87528 -4.11494 -3.12826 -2.87527 92.1062 -29.1794 -102.828 45.1869 0.67284 14.1814 6.07446 -18.4128 -8.11034 -20.1996 -0.306191 -6.83741 -90.5063 -39.7413 75.4196 -19.4061 3.20553 -67.9616 8.45627 18.3249 -22.3895 24.8999 -9.47258 -39.1997 -14.9162 3.12146 1.32125 -6.00143 3.07186 3.20171 
61.0288 94.5997 -64.6166 103.351 49.0929 87.7846 -168.38 -5.43698 104.044 -62.1724 21.4284 6.68247 55.6449 -3.83387 0.95845 9.28068 -10.4402 1.07598 172.134 22.3152 99.0651 -43.131 -8.19104 5.03903 69.3085 -5.04993 -3.47058 21.6305 2.44239 3.36754 -1.05633 8.61794 -91.5029 9.59647 -2.78413 -2.76452 -2.07417 -2.90306 -2.63935 -24.5979 -1.82514 -3.47289 -4.58528 -1.82514 -3.4729 90.6537 -29.9035 -105.498 42.9862 -0.425943 3.8376 5.09048 -9.27411 -6.5853 -22.4753 -0.309096 -5.02471 -92.9462 -47.9332 73.7919 -16.3357 10.6885 -53.6117 13.1219 26.2021 -26.6016 22.4659 -8.46056 -38.3724 -14.4417 1.66897 2.51537 -5.36228 1.62376 1.63913 
66.8209 97.802 -69.9028 103.984 49.7764 85.2045 -173.003 8.38732 97.7738 -69.8962 14.5241 5.36907 64.8519 2.42158 4.13834 9.87747 -10.5806 1.93612 172.649 13.0718 97.4049 -36.4999 -8.93977 4.38973 70.3147 -6.22593 -4.94474 23.1881 1.85343 2.99251 -0.697029 8.60735 -91.1824 9.63599 -1.92347 -2.19378 -2.03525 -2.01814 -2.10703 -24.5606 -1.17553 -2.67017 -4.54792 -1.17551 -2.67017 90.2772 -30.4746 -106.033 39.523 -1.31161 -4.69203 1.92498 -14.6939 -15.1613 -26.8799 0.290534 -8.52734 -93.5589 -52.8304 74.1801 -14.9474 15.7269 -36.7228 11.0092 33.734 -22.347 13.6634 -4.36346 -34.0045 -15.2493 0.175803 -1.52325 -4.12873 0.177223 2.43858 
72.312 100.093 -75.4985 103.184 46.7877 83.0953 -174.149 19.0376 91.3071 -60.1193 6.38267 2.5115 68.0637 4.48035 2.86718 11.5975 -10.3547 3.25816 174.184 4.88409 95.2534 -30.3478 -10.0276 1.53404 71.1956 -6.24754 -4.99212 24.42 0.983591 4.32992 -0.0774978 8.47203 -90.7044 9.92698 -0.474323 -1.36175 -1.74457 -0.533777 -1.33957 -24.2741 -0.0431915 -1.44134 -4.26147 -0.0431687 -1.44134 90.0199 -29.6126 -106.867 34.6367 -1.86058 -11.0463 -4.30477 -24.0039 -26.4947 -31.7763 0.981885 -12.5226 -92.9133 -54.8159 75.5972 -16.2285 12.9621 -20.8574 -3.03686 21.4066 -5.44439 12.7571 -2.3734 -23.4373 -16.41 -0.625534 -3.15246 -2.61725 -0.626343 1.90719 
